<mxfile host="app.diagrams.net" modified="2023-04-07T09:31:21.251Z" agent="Mozilla/5.0 (Windows NT 10.0; Win64; x64) AppleWebKit/537.36 (KHTML, like Gecko) Chrome/109.0.0.0 Safari/537.36" version="21.1.2" etag="n3N115D4gGMG_qkbzD8C" type="github">
  <diagram name="第 1 页" id="lylQPRJbhHLtNiqhlF0K">
    <mxGraphModel>
      <root>
        <mxCell id="0" />
        <mxCell id="1" parent="0" />
      </root>
    </mxGraphModel>
  </diagram>
</mxfile>
